PathFileType   4   (X/Y/Z)																																																																																																																							
DataRate	CameraRate	NumFrames	NumMarkers	Units	OrigDataRate	OrigDataStartFrame	OrigNumFrames																																																																																																																
120	120	5	37	mm	120	137	156																																																																																																																
Frame#	Time	Sternum	R.Acromium	L.Acromium	Top.Head	R.ASIS	L.ASIS	V.Sacral	R.Thigh.Upper	R.Thigh.Front	R.Thigh.Rear	R.Knee.Lat	R.Knee.Med	R.Shank.Upper	R.Shank.Front	R.Shank.Rear	R.Ankle.Lat	R.Ankle.Med	R.Heel	R.Midfoot.Sup	R.Midfoot.Lat	R.Toe.Lat	R.Toe.Med	R.Toe.Tip	L.Thigh.Upper	L.Thigh.Front	L.Thigh.Rear	L.Knee.Lat	L.Knee.Med	L.Shank.Upper	L.Shank.Front	L.Shank.Rear	L.Ankle.Lat	L.Ankle.Med	L.Heel	L.Midfoot.Sup	L.Midfoot.Lat	L.Toe.Lat	L.Toe.Med	L.Toe.Tip																																																																															
 	 	X1	Y1	Z1	X2	Y2	Z2	X3	Y3	Z3	X4	Y4	Z4	X5	Y5	Z5	X6	Y6	Z6	X7	Y7	Z7	X8	Y8	Z8	X9	Y9	Z9	X10	Y10	Z10	X11	Y11	Z11	X12	Y12	Z12	X13	Y13	Z13	X14	Y14	Z14	X15	Y15	Z15	X16	Y16	Z16	X17	Y17	Z17	X18	Y18	Z18	X19	Y19	Z19	X20	Y20	Z20	X21	Y21	Z21	X22	Y22	Z22	X23	Y23	Z23	X24	Y24	Z24	X25	Y25	Z25	X26	Y26	Z26	X27	Y27	Z27	X28	Y28	Z28	X29	Y29	Z29	X30	Y30	Z30	X31	Y31	Z31	X32	Y32	Z32	X33	Y33	Z33	X34	Y34	Z34	X35	Y35	Z35	X36	Y36	Z36	X37	Y37	Z37	X38	Y38	Z38	X39	Y39	Z39	
																																																																																																																							
	137	1.35	-1330.377369	-0.001002095	1352.725897	-1390.609387	-161.9453511	1432.805627	-1387.986579	165.1979949	1431.978476	-1242.945251	-10.08809499	1631.51598	-1371.120875	-117.7896216	1018.94887	-1364.83069	119.399185	1012.061935	-1547.257339	-5.611229398	1006.761995	-1411.076591	-173.4115572	672.041298	-1353.547713	-67.95180237	598.8644008	-1434.321206	-162.9734513	539.7601041	-1486.240636	-142.5943975	449.2613871	-1489.777414	-8.355853302	431.0324537	-1525.746157	-154.6508593	421.4983595	-1451.258314	-93.81404015	366.6028392	-1526.97997	-165.0122006	324.6627862	-1586.89815	-136.9768135	11.41964179	-1575.1981	-37.22329306	25.62356262	-1658.191656	-79.10633289	-15.52136778	-1506.218179	-41.71858376	-4.580579266	-1511.94252	-155.3841374	-25.46503229	-1417.269514	-165.0174344	-51.55936469	-1414.699039	-50.15543807	-37.7299441	-1350.15014	-83.79364801	-37.6998151	-1325.602554	178.8034865	720.5645279	-1228.097347	95.03600439	709.621331	-1291.456007	161.7547942	604.6558515	-1265.822883	144.5366564	460.1180361	-1264.851502	15.87918741	461.3489443	-1276.642144	162.4477689	430.4595329	-1223.641193	100.5194763	378.1059677	-1292.610953	174.5177999	381.0664125	-1249.957346	136.4325857	32.4986841	-1247.18699	34.31683281	58.77700494	-1328.736673	76.11439987	-0.004922575	-1149.084535	48.15109198	32.58278104	-1168.297287	152.6198727	29.39671054	-1098.164166	163.716336	16.07030981	-1080.351525	55.50675189	19.00247207	-1029.083388	82.30973808	28.39546132
	138	1.35833	-1325.005044	-0.001002095	1352.084519	-1385.272931	-161.9453511	1432.137256	-1382.649752	165.1979949	1431.31128	-1237.697833	-10.08809499	1630.913743	-1365.606501	-117.7896216	1018.261471	-1359.314892	119.399185	1011.375836	-1541.740442	-5.611229398	1006.038205	-1406.824505	-173.4115572	671.1543104	-1349.6758	-67.95180237	597.6801269	-1430.754645	-162.9734513	538.9954107	-1483.142586	-142.5943975	448.7670967	-1486.773828	-8.355853302	430.5567453	-1522.893973	-154.6508593	421.2753532	-1448.801877	-93.81404015	365.8468569	-1524.822469	-165.0122006	324.4511235	-1586.986368	-136.9768135	11.64590371	-1575.184718	-37.22329306	25.76552083	-1658.329282	-79.10633289	-15.19640309	-1506.336329	-41.71858376	-4.529608196	-1512.09831	-155.3841374	-25.40370751	-1417.4725	-165.0174344	-51.6686728	-1414.877098	-50.15543807	-37.84390869	-1350.32825	-83.79364801	-37.93014768	-1320.131635	178.8034865	719.8222746	-1222.629957	95.03600439	708.8476794	-1286.022415	161.7547942	603.9026083	-1260.435837	144.5366564	459.356546	-1259.46406	15.87918741	460.5871412	-1269.455286	162.4477689	430.0421895	-1215.015213	100.5194763	379.1867558	-1284.040703	174.5177999	380.2230284	-1231.684881	136.4325857	32.98008837	-1229.648297	34.31683281	59.32543601	-1309.962776	76.11439987	-0.702659743	-1130.795013	48.15109198	34.4507468	-1149.96024	152.6198727	30.99025871	-1079.643722	163.716336	18.66812794	-1061.874833	55.50675189	21.8547121	-1010.746258	82.30973808	31.97987796
	139	1.36667	-1319.616477	-0.001002095	1351.440529	-1379.929281	-161.9453511	1431.459431	-1377.305639	165.1979949	1430.634928	-1232.465758	-10.08809499	1630.318706	-1360.041183	-117.7896216	1017.555365	-1353.748065	119.399185	1010.671109	-1536.17244	-5.611229398	1005.293479	-1402.489208	-173.4115572	670.2586386	-1345.712701	-67.95180237	596.4964645	-1427.087205	-162.9734513	538.2224128	-1479.930649	-142.5943975	448.2601124	-1483.653911	-8.355853302	430.0683524	-1519.94043	-154.6508593	421.0484032	-1446.260482	-93.81404015	365.0732107	-1522.585285	-165.0122006	324.2410931	-1587.061954	-136.9768135	11.90439175	-1575.156154	-37.22329306	25.93630097	-1658.457454	-79.10633289	-14.83139713	-1506.444308	-41.71858376	-4.456347612	-1512.246343	-155.3841374	-25.3193493	-1417.671119	-165.0174344	-51.76588504	-1415.049187	-50.15543807	-37.94612785	-1350.500623	-83.79364801	-38.15625769	-1314.674478	178.8034865	719.0201169	-1217.179994	95.03600439	707.9817967	-1280.641031	161.7547942	603.0781815	-1255.148933	144.5366564	458.5154266	-1254.176352	15.87918741	459.7453864	-1262.419379	162.4477689	429.5919158	-1206.625944	100.5194763	380.2250323	-1275.654247	174.5177999	379.3970805	-1213.941159	136.4325857	33.69448238	-1212.616703	34.31683281	60.08521619	-1291.758608	76.11439987	-1.02573898	-1113.045659	48.15109198	36.37120032	-1132.165994	152.6198727	32.67070233	-1061.700515	163.716336	21.23112547	-1043.972974	55.50675189	24.64023462	-992.975361	82.30973808	35.40562344
	140	1.375	-1314.201917	-0.001002095	1350.794226	-1374.566684	-161.9453511	1430.773935	-1371.942507	165.1979949	1429.951136	-1227.232361	-10.08809499	1629.728953	-1354.42318	-117.7896216	1016.832862	-1348.12858	119.399185	1009.949962	-1530.551793	-5.611229398	1004.533045	-1398.072263	-173.4115572	669.3571436	-1341.660381	-67.95180237	595.3157387	-1423.321412	-162.9734513	537.4438886	-1476.608076	-142.5943975	447.7434065	-1480.421049	-8.355853302	429.5702381	-1516.887972	-154.6508593	420.820562	-1443.636506	-93.81404015	364.285796	-1520.2701	-165.0122006	324.036205	-1587.12387	-136.9768135	12.1996624	-1575.111539	-37.22329306	26.14048183	-1658.575711	-79.10633289	-14.41997282	-1506.541527	-41.71858376	-4.357899879	-1512.386501	-155.3841374	-25.20891251	-1417.865924	-165.0174344	-51.85009741	-1415.215547	-50.15543807	-38.03576737	-1350.667552	-83.79364801	-38.37878507	-1309.221662	178.8034865	718.167481	-1211.737575	95.03600439	707.0377229	-1275.296975	161.7547942	602.1936757	-1249.940478	144.5366564	457.6070746	-1248.966744	15.87918741	458.8361217	-1255.522094	162.4477689	429.1153261	-1198.468065	100.5194763	381.2108965	-1267.451729	174.5177999	378.5943698	-1196.800562	136.4325857	34.60715473	-1196.16046	34.31683281	61.02334836	-1274.201546	76.11439987	-1.0162555	-1095.905213	48.15109198	38.31905574	-1114.984238	152.6198727	34.41115539	-1044.398696	163.716336	23.73741112	-1026.709218	55.50675189	27.33881599	-975.8315087	82.30973808	38.65733403
	141	1.38333	-1308.751032	-0.001002095	1350.146299	-1369.172786	-161.9453511	1430.082966	-1366.548023	165.1979949	1429.262037	-1221.980296	-10.08809499	1629.142939	-1348.750296	-117.7896216	1016.096662	-1342.454357	119.399185	1009.214987	-1524.876512	-5.611229398	1003.762585	-1393.574645	-173.4115572	668.4531705	-1337.520176	-67.95180237	594.1408123	-1419.459106	-162.9734513	536.6631063	-1473.177361	-142.5943975	447.2204198	-1477.077855	-8.355853302	429.0658347	-1513.738343	-154.6508593	420.5953719	-1440.931682	-93.81404015	363.4889175	-1517.878006	-165.0122006	323.8404561	-1587.170819	-136.9768135	12.53680698	-1575.049726	-37.22329306	26.3831654	-1658.683607	-79.10633289	-13.95434568	-1506.62734	-41.71858376	-4.231683073	-1512.518846	-155.3841374	-25.06959604	-1418.057975	-165.0174344	-51.92171244	-1415.376767	-50.15543807	-38.11333324	-1350.829698	-83.79364801	-38.6004403	-1303.762427	178.8034865	717.2747968	-1206.291431	95.03600439	706.0309612	-1269.973486	161.7547942	601.261369	-1244.786216	144.5366564	456.6451924	-1243.811044	15.87918741	457.8730991	-1248.751079	162.4477689	428.617723	-1190.536103	100.5194763	382.1310252	-1259.434546	174.5177999	377.8186407	-1180.344405	136.4325857	35.67314365	-1180.354201	34.31683281	62.09708961	-1257.373998	76.11439987	-0.728533476	-1079.451005	48.15109198	40.26241498	-1098.492881	152.6198727	36.1773362	-1027.811171	163.716336	26.16017427	-1010.155934	55.50675189	29.92585441	-959.3856335	82.30973808	41.71681237
